<?xml version="1.0" encoding="UTF-8" standalone="no"?>
<svg
   width="62"
   height="62"
   viewBox="0 0 62 62"
   version="1.1"
   id="svg6"
   sodipodi:docname="instinct-oled-crossover.svg"
   inkscape:version="1.4.3 (0d15f75042, 2025-12-25)"
   inkscape:export-filename="../icons/38_2A/drawables/key.png"
   inkscape:export-xdpi="58.84"
   inkscape:export-ydpi="58.84"
   xmlns:inkscape="http://www.inkscape.org/namespaces/inkscape"
   xmlns:sodipodi="http://sodipodi.sourceforge.net/DTD/sodipodi-0.dtd"
   xmlns="http://www.w3.org/2000/svg"
   xmlns:svg="http://www.w3.org/2000/svg"
   xmlns:rdf="http://www.w3.org/1999/02/22-rdf-syntax-ns#"
   xmlns:cc="http://creativecommons.org/ns#"
   xmlns:dc="http://purl.org/dc/elements/1.1/">
  <defs
     id="defs10" />
  <sodipodi:namedview
     id="namedview8"
     pagecolor="#000000"
     bordercolor="#666666"
     borderopacity="1.0"
     inkscape:showpageshadow="2"
     inkscape:pageopacity="0.0"
     inkscape:pagecheckerboard="0"
     inkscape:deskcolor="#d1d1d1"
     showgrid="false"
     inkscape:zoom="5.6568543"
     inkscape:cx="15.291184"
     inkscape:cy="21.831922"
     inkscape:window-width="1536"
     inkscape:window-height="888"
     inkscape:window-x="0"
     inkscape:window-y="0"
     inkscape:window-maximized="1"
     inkscape:current-layer="svg6"
     shape-rendering="crispEdges" />
  <title
     id="title2">key</title>
  <path
     d="m 14.365609,17.683393 a 5.1101279,5.1101279 0 0 0 4.977397,-4.977399 4.9773979,4.9773979 0 0 0 -9.9547957,0 5.1101279,5.1101279 0 0 0 4.9773987,4.977399 z M 19.343006,1.092068 a 18.41637,18.41637 0 0 1 18.250457,18.250457 22.597385,22.597385 0 0 1 -2.322785,9.291143 l 25.55064,25.550639 v 6.63653 h -13.27306 v -6.63653 h -6.636527 v -6.63653 H 34.275199 L 23.656751,36.929329 A 19.41185,19.41185 0 0 1 19.343006,37.592982 18.41637,18.41637 0 0 1 1.092549,19.342525 18.41637,18.41637 0 0 1 19.343006,1.092068 Z"
     id="path4"
     style="fill:#ffffff;stroke-width:3.31826" />
  <metadata
     id="metadata298">
    <rdf:RDF>
      <cc:Work
         rdf:about="">
        <dc:title>key</dc:title>
      </cc:Work>
    </rdf:RDF>
  </metadata>
</svg>
